<svg id="Capa_1" enable-background="new 0 0 512 512" height="512" viewBox="0 0 512 512" width="512" xmlns="http://www.w3.org/2000/svg"><g><path d="m84.413 305.236c-13.92.001-26.631-4.58-37.249-13.517-20.443-17.204-27.323-44.764-27.323-54.695 0-4.142 3.357-7.5 7.5-7.5s7.5 3.358 7.5 7.5c0 6.336 5.411 29.273 21.982 43.218 10.163 8.553 22.501 11.642 36.668 9.188 4.09-.71 7.965 2.028 8.671 6.108.708 4.082-2.027 7.963-6.108 8.671-3.958.686-7.846 1.027-11.641 1.027z" fill="#edbf76"/><path d="m54.781 226.692c0 15.057-12.125 25.146-27.144 25.314-16.272.182-28.784-14.134-27.554-30.361.766-10.113 3.801-19.804 8.504-28.146 8.003-14.194 28.644-13.504 35.547 1.256 5.416 11.578 10.647 23.356 10.647 31.937z" fill="#e0ab99"/><g fill="#f1d88c"><path d="m208.479 228.256c82.8 0 143.032-2.188 143.032 78.583s-67.122 92.789-149.922 92.789-133.223-16.289-133.223-71.364c0-72.608 57.314-100.008 140.113-100.008z"/><path d="m64.919 471.19c-11.544-9.101-13.523-25.836-4.422-37.379.867-1.1 1.788-2.254 2.756-3.465 11.968-14.98 30.054-37.617 34.177-74.732 1.624-14.609 14.783-25.137 29.392-23.513 14.609 1.625 25.136 14.782 23.514 29.391-5.825 52.426-31.631 84.726-45.494 102.08-.893 1.118-1.744 2.182-2.543 3.196-9.115 11.56-25.854 13.51-37.38 4.422z"/><path d="m228.373 490.153c-14.3-3.407-23.128-17.761-19.721-32.06 3.914-16.425 7.026-45.479-.374-90.621-2.378-14.505 7.453-28.193 21.959-30.57 14.516-2.382 28.193 7.454 30.571 21.959 4.874 29.729 8.764 73.218-.374 111.571-3.413 14.32-17.783 23.124-32.061 19.721z"/></g><path d="m301.741 449.804c-14.429-53.623-30.198-72.364-36.52-74.782-13.729-5.251-20.602-20.638-15.35-34.368 5.251-13.73 20.634-20.601 34.367-15.35 29.348 11.226 51.886 47.425 68.906 110.667 3.82 14.194-4.591 28.798-18.786 32.617-14.165 3.814-28.789-4.561-32.617-18.784z" fill="#edbf76"/><path d="m351.511 306.839c0-80.772-60.233-78.583-143.032-78.583-41.908 0-77.28 7.026-102.003 23.373-.698 8.205-.869 16.194-.307 23.525 1.7 22.104 22.919 38.2 45.037 33.072 4.834 14.001 10.807 26.807 17.866 38.285 8.789 14.294 25.609 20.534 41.175 16.263 4.48 9.434 9.968 18.522 16.626 25.892 3.958 4.382 8.848 7.674 14.198 9.72 63.642-4.601 110.44-24.106 110.44-91.547z" fill="#edbf76"/><path d="m511.895 191.514c-5.691-30.041-23.704-56.442-41.77-73.694-3.385-3.233-1.916-8.924 2.624-10.063 6.264-1.571 11.928-3.627 16.466-6.195 3.837-2.172 4.028-7.663.353-10.102-23.834-15.817-59.857-22.061-84.636-24.394-4.824-.454-7.095-6.18-3.905-9.827 8.44-9.648 16.798-19.303 20.693-26.368 1.999-3.625-.335-8.139-4.439-8.684-25.555-3.396-72.672.687-98.584 21.063-2.109 1.658-5.077 1.658-7.186 0-25.912-20.376-73.03-24.459-98.584-21.063-4.104.545-6.438 5.058-4.439 8.684 3.895 7.065 12.253 16.72 20.693 26.368 3.19 3.647.919 9.373-3.905 9.827-24.779 2.333-60.802 8.577-84.636 24.394-3.674 2.438-3.484 7.929.353 10.102 4.538 2.569 10.201 4.624 16.466 6.195 4.54 1.139 6.009 6.83 2.624 10.063-18.066 17.253-36.08 43.653-41.77 73.694-.768 4.053 2.787 7.604 6.854 6.915 4.448-.753 9.755-1.854 15.485-3.235 4.485-1.081 8.419 3.134 7.047 7.538-6.117 19.639-12.306 49.28-10.713 70.053.3 3.913 4.247 6.457 7.94 5.128 5.47-1.97 12.294-5.009 19.262-9.535 3.522-2.288 8.221-.37 9.09 3.739 3.785 17.917 10.503 39.315 22.123 58.207 1.952 3.174 6.297 3.829 9.059 1.328 4.023-3.643 8.475-8.276 12.889-13.681 3.038-3.72 9.045-2.421 10.297 2.216 4.606 17.063 12.076 36.597 22.164 47.765 2.085 2.308 5.609 2.638 8.051.713 5.385-4.245 11.446-11.184 16.869-18.501 2.614-3.527 7.983-3.089 10.037.792 6.427 12.141 15.628 24.122 27.813 29.925 1.592.758 3.456.758 5.049 0 12.185-5.803 21.386-17.785 27.813-29.925 2.054-3.881 7.423-4.319 10.037-.792 5.423 7.317 11.484 14.256 16.869 18.501 2.442 1.925 5.967 1.595 8.051-.713 10.027-11.1 17.468-30.465 22.081-47.455 1.287-4.741 7.479-5.949 10.447-2.035 4.348 5.734 8.731 10.934 12.701 14.912 2.729 2.735 7.298 2.152 9.297-1.154 11.565-19.125 18.253-41.807 22.022-60.07.851-4.122 5.562-6.052 9.092-3.76 6.962 4.52 13.778 7.555 19.244 9.523 3.693 1.33 7.639-1.214 7.94-5.128 1.593-20.773-4.596-50.414-10.713-70.053-1.372-4.404 2.562-8.619 7.047-7.538 5.731 1.381 11.037 2.481 15.485 3.235 4.066.688 7.621-2.863 6.853-6.915z" fill="#e0ab99"/><path d="m284.766 350.955c6.427 12.141 15.628 24.122 27.813 29.925 1.593.758 3.456.758 5.049 0 12.185-5.803 21.386-17.785 27.813-29.925 2.054-3.881 7.423-4.319 10.037-.792 5.423 7.317 11.485 14.256 16.869 18.501 2.442 1.925 5.967 1.595 8.051-.713 3.751-4.153 7.14-9.463 10.154-15.372-29.375-10.083-40.691-52.766-29.554-70.539l-117.637-151.501c-19.557-5.752-36.52-39.801-30.206-62.102-23.43 3.104-52.339 9.633-72.516 23.022-3.674 2.438-3.484 7.929.353 10.102 4.538 2.569 10.201 4.624 16.466 6.195 4.54 1.139 6.009 6.83 2.624 10.063-18.066 17.253-36.08 43.653-41.77 73.694-.768 4.053 2.787 7.604 6.854 6.915 4.448-.753 9.755-1.854 15.486-3.235 4.485-1.081 8.419 3.134 7.047 7.538-6.117 19.639-12.306 49.28-10.713 70.053.3 3.913 4.247 6.457 7.94 5.128 5.471-1.97 12.294-5.009 19.262-9.535 3.522-2.288 8.222-.37 9.09 3.739 3.785 17.917 10.503 39.315 22.123 58.207 1.952 3.174 6.297 3.829 9.059 1.328 4.023-3.643 8.475-8.276 12.889-13.681 3.038-3.72 9.045-2.421 10.297 2.217 4.606 17.063 12.076 36.597 22.165 47.765 2.084 2.308 5.609 2.638 8.051.713 5.384-4.245 11.446-11.184 16.869-18.501 2.612-3.528 7.981-3.09 10.035.791z" fill="#d99a84"/><path d="m303.539 120.257c7.166 4.008 15.961 4.008 23.127 0 68.736-38.444 111.387 22.219 111.387 77.086 0 57.882-55.047 95.429-122.951 95.429s-122.951-37.548-122.951-95.429c.001-54.867 42.652-115.53 111.388-77.086z" fill="#f1d88c"/><g><g fill="#eca0aa"><ellipse cx="233.145" cy="207.557" rx="30.241" ry="24.082"/><ellipse cx="397.061" cy="207.557" rx="30.241" ry="24.082"/></g><g fill="#565e75"><path d="m250.769 191.875c-4.143 0-7.5-3.358-7.5-7.5v-12.362c0-4.142 3.357-7.5 7.5-7.5s7.5 3.358 7.5 7.5v12.362c0 4.142-3.357 7.5-7.5 7.5z"/><path d="m379.436 191.875c-4.143 0-7.5-3.358-7.5-7.5v-12.362c0-4.142 3.357-7.5 7.5-7.5s7.5 3.358 7.5 7.5v12.362c0 4.142-3.357 7.5-7.5 7.5z"/><path d="m315.102 233.323c-8.668 0-16.911-3.754-22.615-10.3-2.722-3.122-2.396-7.86.727-10.581 3.122-2.721 7.859-2.397 10.582.727 2.854 3.275 6.976 5.154 11.307 5.154s8.452-1.879 11.309-5.155c2.721-3.124 7.46-3.447 10.581-.726 3.123 2.722 3.447 7.459.726 10.582-5.706 6.545-13.95 10.299-22.617 10.299z"/><path d="m330.627 180.791c0-5.477-6.951-7.233-15.524-7.233-8.574 0-15.524 1.756-15.524 7.233s6.951 12.601 15.524 12.601c8.574 0 15.524-7.124 15.524-12.601z"/></g></g></g></svg>