<?xml version="1.0" encoding="windows-1252"?>
<!-- Generator: Adobe Illustrator 19.0.0, SVG Export Plug-In . SVG Version: 6.00 Build 0)  -->
<svg xmlns="http://www.w3.org/2000/svg" xmlns:xlink="http://www.w3.org/1999/xlink" version="1.1" id="Layer_1" x="0px" y="0px" viewBox="0 0 512 512" style="enable-background:new 0 0 512 512;" xml:space="preserve" width="512" height="512">
<g>
	<polygon style="fill:#FFBD86;" points="512,301 398.5,358.299 256,365.499 116.201,372.4 0,301 65.7,181 446.3,181  "/>
	<polygon style="fill:#FED2A4;" points="512,301 512,421 484.701,452 40.201,452 0,421 0,301  "/>
	<polygon style="fill:#F6A96C;" points="398.5,358.299 256,365.499 256,181 446.3,181 512,301  "/>
	<g>
		<path style="fill:#FFBD86;" d="M0,421v91h512v-91H0z"/>
	</g>
	<polygon style="fill:#FFBD86;" points="512,301 512,421 484.701,452 256,452 256,301  "/>
	<rect x="256" y="421" style="fill:#F6A96C;" width="256" height="91"/>
	<path style="fill:#E0F4FF;" d="M390.7,53.167v18.3C391,150.966,363.401,239.5,352,262.599H160   c-9.6-19.499-47.1-122.133-36.899-224.432l3.3-33.602l11.4-2.098c41.1-7.202,83.101,1.5,118.2,24.3   c0.601,0.298,0.901,0.599,1.5,0.899l13.5,9c30.3,20.101,66.301,27.301,101.7,20.101L390.7,53.167z"/>
	<path style="fill:#BBDCFF;" d="M390.7,53.167v18.3C391,150.966,363.401,239.5,352,262.599h-96V26.767   c0.601,0.298,0.901,0.599,1.5,0.899l13.5,9c30.3,20.101,66.301,27.301,101.7,20.101L390.7,53.167z"/>
	<g>
		<g>
			<rect x="211" y="151" style="fill:#BBDCFF;" width="30" height="105"/>
		</g>
	</g>
	<g>
		<g>
			<rect x="271" y="211" style="fill:#9ABADB;" width="30" height="45"/>
		</g>
	</g>
	<g>
		<rect x="121" y="241" style="fill:#8C4A37;" width="270" height="30"/>
	</g>
	<rect x="256" y="241" style="fill:#663325;" width="135" height="30"/>
</g>















</svg>