<?xml version="1.0" encoding="windows-1252"?>
<!-- Generator: Adobe Illustrator 19.0.0, SVG Export Plug-In . SVG Version: 6.00 Build 0)  -->
<svg version="1.1" id="Capa_1" xmlns="http://www.w3.org/2000/svg" xmlns:xlink="http://www.w3.org/1999/xlink" x="0px" y="0px" viewBox="0 0 512 512" style="enable-background:new 0 0 512 512;" xml:space="preserve">
<path d="M226,172.229h0.293H226z"/>
<path style="fill:#17CEB4;" d="M492.8,448.1l-27.9-48.6c-2.699-4.501-7.8-6.899-12.9-6.899S441.799,395,439.1,399.5l-28.5,50.099  c-2.401,5.4-3.6,11.4-3.6,17.401c0,24.901,20.099,45,45,45s45-20.099,45-45C497,461,495.801,454.999,492.8,448.1z"/>
<path style="fill:#57555C;" d="M512,347v30c0,8.401-6.599,15-15,15h-90c-8.401,0-15-6.599-15-15v-30l25.499-30H482L512,347z"/>
<path style="fill:#3C3A41;" d="M512,347v30c0,8.401-6.599,15-15,15h-45v-75h30L512,347z"/>
<path style="fill:#11AD94;" d="M492.8,448.1c3.001,6.899,4.2,12.9,4.2,18.9c0,24.901-20.099,45-45,45V392.601  c5.099,0,10.201,2.399,12.9,6.899L492.8,448.1z"/>
<path style="fill:#CAE8F9;" d="M512,316.7c0,0,0,27.301,0,30.3H392c0-13.5-12.001-30-30-30h-39.401c-16.5,18.3-39.899,30-66.599,30  s-50.099-11.7-66.599-30H45V197h144.401c9.899-11.1,22.5-19.501,36.599-24.6V90h-41.1c-2.999,2.1-13.2,15-33.9,15  c-24.901,0-45-20.099-45-45s20.099-45,45-45c20.7,0,30.901,12.9,33.9,15h39.3l3.6-9.901C232,8.101,243.401,0,256,0  s24,8.101,28.2,20.099L287.8,30h39.3c2.999-2.1,14.2-15,34.9-15c24.901,0,45,20.099,45,45s-20.099,45-45,45  c-20.7,0-31.901-12.9-34.9-15H286v82.4c14.099,5.099,26.7,13.5,36.599,24.6H392c21.899,0,42.299,6,60,16.199  C487.7,233.899,512,272.3,512,316.7z"/>
<path style="fill:#B7E0F6;" d="M512,316.7c0,0,0,27.301,0,30.3h-60V213.199C487.7,233.899,512,272.3,512,316.7z"/>
<path style="fill:#57555C;" d="M15,422L15,422c-8.284,0-15-6.716-15-15V106c0-8.284,6.716-15,15-15l0,0c24.853,0,45,20.147,45,45  v241C60,401.853,39.853,422,15,422z"/>
<g>
</g>
<g>
</g>
<g>
</g>
<g>
</g>
<g>
</g>
<g>
</g>
<g>
</g>
<g>
</g>
<g>
</g>
<g>
</g>
<g>
</g>
<g>
</g>
<g>
</g>
<g>
</g>
<g>
</g>
</svg>