<?xml version="1.0" encoding="windows-1252"?>
<!-- Generator: Adobe Illustrator 19.0.0, SVG Export Plug-In . SVG Version: 6.00 Build 0)  -->
<svg version="1.1" id="Capa_1" xmlns="http://www.w3.org/2000/svg" xmlns:xlink="http://www.w3.org/1999/xlink" x="0px" y="0px" viewBox="0 0 468.293 468.293" style="enable-background:new 0 0 468.293 468.293;" xml:space="preserve">
<path style="fill:#EBF0F3;" d="M361.648,72.616H17.369C7.776,72.616,0,80.392,0,89.985v220.513h468.276V179.244L361.648,72.616z"/>
<path style="fill:#D5D6DB;" d="M0,303.947v27.122c0,8.632,6.998,15.63,15.63,15.63h437.032c8.632,0,15.63-6.998,15.63-15.63v-27.122  H0z"/>
<g>
	<rect x="30.782" y="102.163" style="fill:#2E9AE1;" width="227.784" height="86.865"/>
	<polygon style="fill:#2E9AE1;" points="285.656,189.028 437.509,189.028 350.649,102.163 285.656,102.163  "/>
</g>
<path style="fill:#E56353;" d="M468.276,233.354v49.661h-22.455c-4.477,0-8.106-3.629-8.106-8.106V241.46  c0-4.477,3.629-8.106,8.106-8.106H468.276z"/>
<path style="fill:#CE412D;" d="M18.469,222.068H0v75.329h26.241c2.508,0,4.54-2.033,4.54-4.54V234.38  C30.782,227.579,25.269,222.068,18.469,222.068z"/>
<path style="fill:#E56353;" d="M18.469,236.43v46.604c0,2.508-2.033,4.54-4.54,4.54H0v-55.685h13.929  C16.436,231.889,18.469,233.922,18.469,236.43z"/>
<path style="fill:#2F4859;" d="M379.139,297.722c-27.05,0-48.978,21.928-48.978,48.978s21.928,48.976,48.978,48.976  s48.978-21.926,48.978-48.976C428.117,319.65,406.189,297.722,379.139,297.722z"/>
<circle style="fill:#EBF0F3;" cx="379.13" cy="346.724" r="20.399"/>
<path style="fill:#2F4859;" d="M89.153,297.722c-27.05,0-48.978,21.928-48.978,48.978s21.928,48.976,48.978,48.976  s48.978-21.926,48.978-48.976C138.131,319.65,116.203,297.722,89.153,297.722z"/>
<circle style="fill:#EBF0F3;" cx="89.15" cy="346.724" r="20.399"/>
<g>
</g>
<g>
</g>
<g>
</g>
<g>
</g>
<g>
</g>
<g>
</g>
<g>
</g>
<g>
</g>
<g>
</g>
<g>
</g>
<g>
</g>
<g>
</g>
<g>
</g>
<g>
</g>
<g>
</g>
</svg>