<svg id="Capa_1" enable-background="new 0 0 502 502" height="512" viewBox="0 0 502 502" width="512" xmlns="http://www.w3.org/2000/svg" xmlns:xlink="http://www.w3.org/1999/xlink"><linearGradient id="lg1"><stop offset="0" stop-color="#eca0aa"/><stop offset="1" stop-color="#f8dde3"/></linearGradient><linearGradient id="SVGID_1_" gradientUnits="userSpaceOnUse" x1="191.924" x2="191.924" xlink:href="#lg1" y1="506.553" y2="72.568"/><linearGradient id="SVGID_4_" gradientUnits="userSpaceOnUse" x1="354.893" x2="354.893" xlink:href="#lg1" y1="248.967" y2="-37.951"/><linearGradient id="SVGID_5_" gradientUnits="userSpaceOnUse" x1="207.593" x2="423.719" y1="258.12" y2="258.12"><stop offset="0" stop-color="#f4d952"/><stop offset="1" stop-color="#f9edaf"/></linearGradient><g><g fill="url(#SVGID_1_)"><path d="m245.449 247.451v81.315c0 29.514-24.012 53.525-53.525 53.525s-53.525-24.011-53.525-53.525c0-14.298 5.567-27.739 15.677-37.848 23.375-23.375 23.375-61.273 0-84.647-23.376-23.374-61.271-23.374-84.647 0-32.719 32.719-50.739 76.222-50.739 122.495-.001 95.521 77.712 173.234 173.234 173.234s173.234-77.713 173.234-173.234v-81.315z"/><path d="m245.449 247.451v81.315c0 29.514-24.012 53.525-53.525 53.525s-53.525-24.011-53.525-53.525c0-14.298 5.567-27.739 15.677-37.848 23.375-23.375 23.375-61.273 0-84.647-23.376-23.374-61.271-23.374-84.647 0-32.719 32.719-50.739 76.222-50.739 122.495-.001 95.521 77.712 173.234 173.234 173.234s173.234-77.713 173.234-173.234v-81.315z"/><path d="m245.449 247.451v81.315c0 29.514-24.012 53.525-53.525 53.525s-53.525-24.011-53.525-53.525c0-14.298 5.567-27.739 15.677-37.848 23.375-23.375 23.375-61.273 0-84.647-23.376-23.374-61.271-23.374-84.647 0-32.719 32.719-50.739 76.222-50.739 122.495-.001 95.521 77.712 173.234 173.234 173.234s173.234-77.713 173.234-173.234v-81.315z"/></g><path d="m483.311 108.472c0-59.907-57.495-108.472-128.418-108.472s-128.418 48.565-128.418 108.472v146.078h158.936v-40.695c56.189-11.571 97.9-54.359 97.9-105.383z" fill="url(#SVGID_4_)"/><path d="m372.99 307.048h-133.344c-11.755 0-21.284-9.529-21.284-21.284v-55.288c0-11.755 9.529-21.284 21.284-21.284h133.344c11.755 0 21.284 9.529 21.284 21.284v55.288c0 11.755-9.529 21.284-21.284 21.284z" fill="url(#SVGID_5_)"/><path d="m237.088 357.436c-4.224 6.631-9.863 12.27-16.494 16.494l85.24 85.24c5.859-5.124 11.37-10.635 16.494-16.494z" fill="#e88792"/><path d="m146.76 357.436-85.24 85.24c5.124 5.859 10.635 11.37 16.494 16.494l85.24-85.24c-6.631-4.224-12.27-9.863-16.494-16.494z" fill="#e88792"/><path d="m245.449 307.048v21.717c0 3.32-.319 6.566-.901 9.721h88.833c-.498 7.286-1.561 14.489-3.165 21.555-1.921 8.462 3.545 16.844 12.023 18.689 8.415 1.831 16.775-3.438 18.674-11.837 2.775-12.271 4.245-25.03 4.245-38.128v-21.717z" fill="#e88792"/><g fill="#fff5f6"><path d="m55.578 313.479c-.601 0-1.211-.055-1.823-.167-5.432-1.001-9.024-6.215-8.024-11.647.885-4.797 2.021-9.61 3.379-14.305 1.536-5.306 7.082-8.36 12.386-6.827 5.305 1.535 8.361 7.08 6.827 12.385-1.175 4.061-2.158 8.223-2.922 12.371-.888 4.819-5.093 8.19-9.823 8.19z"/><path d="m75.571 263.301c-1.868 0-3.757-.523-5.44-1.616-4.63-3.01-5.944-9.204-2.935-13.835 7.003-10.773 15.389-20.618 24.924-29.261 4.094-3.708 10.416-3.397 14.125.694 3.709 4.092 3.398 10.417-.693 14.126-8.26 7.486-15.523 16.012-21.586 25.341-1.916 2.948-5.122 4.551-8.395 4.551z"/></g><g><ellipse cx="272.12" cy="134.919" fill="#ff8392" rx="14.925" ry="11.994"/><ellipse cx="447.752" cy="134.919" fill="#ff8392" rx="14.925" ry="11.994"/><ellipse cx="422.165" cy="105.362" fill="#fff" rx="29.557" ry="29.557" transform="matrix(.116 -.993 .993 .116 268.578 512.469)"/><path d="m404.594 106.81c.755 9.046 8.331 16.153 17.572 16.153s16.817-7.108 17.572-16.153z" fill="#3b3b44"/><path d="m422.165 75.806c-16.324 0-29.557 13.233-29.557 29.557 0 .486.014.968.037 1.447h59.04c.023-.48.037-.962.037-1.447 0-16.324-13.233-29.557-29.557-29.557z" fill="#a86455"/><ellipse cx="297.707" cy="105.362" fill="#fff" rx="29.557" ry="29.557" transform="matrix(.116 -.993 .993 .116 158.546 388.849)"/><path d="m280.135 106.81c.755 9.046 8.331 16.153 17.572 16.153s16.817-7.108 17.572-16.153z" fill="#3b3b44"/><path d="m297.707 75.806c-16.324 0-29.557 13.233-29.557 29.557 0 .486.014.968.037 1.447h59.04c.023-.48.037-.962.037-1.447 0-16.324-13.234-29.557-29.557-29.557z" fill="#a86455"/><path d="m371.302 138.368c-1.824 0-3.653-.662-5.098-2-3.748-3.477-8.788-3.476-12.536 0-3.037 2.815-7.782 2.637-10.6-.401-2.816-3.038-2.637-7.783.4-10.599 9.543-8.846 23.392-8.847 32.934 0 3.037 2.816 3.217 7.562.4 10.599-1.476 1.594-3.486 2.401-5.5 2.401z" fill="#3b3b44"/></g></g></svg>