<svg height="512pt" viewBox="0 -1 512 512" width="512pt" xmlns="http://www.w3.org/2000/svg"><path d="m51.1875 509.28125c-3.078125 0-6.1875-.917969-8.894531-2.828125-6.972657-4.917969-8.640625-14.558594-3.722657-21.53125l133-188.585937c4.917969-6.972657 14.558594-8.640626 21.53125-3.71875 6.976563 4.917968 8.640626 14.558593 3.722657 21.53125l-132.996094 188.585937c-3.007813 4.265625-7.789063 6.546875-12.640625 6.546875zm0 0" fill="#485b73"/><path d="m460.8125 509.28125c3.078125 0 6.1875-.917969 8.894531-2.828125 6.972657-4.917969 8.640625-14.558594 3.722657-21.53125l-133-188.585937c-4.917969-6.972657-14.558594-8.640626-21.53125-3.71875-6.976563 4.917968-8.640626 14.558593-3.722657 21.53125l132.996094 188.585937c3.007813 4.265625 7.789063 6.546875 12.640625 6.546875zm0 0" fill="#485b73"/><path d="m460.800781 181.800781-51.199219-88.164062v-17.640625c0-12.476563-10.117187-22.59375-22.597656-22.59375h-57.207031c-12.480469 0-22.597656 10.117187-22.597656 22.59375l-51.199219 105.804687 51.199219 105.804688c0 12.480469 10.117187 22.597656 22.597656 22.597656h57.207031c12.480469 0 22.597656-10.117187 22.597656-22.597656v-17.640625zm0 0" fill="#ff6881"/><path d="m204.800781 58.359375v-17.636719c0-12.480468-10.117187-22.597656-22.597656-22.597656h-57.207031c-12.480469 0-22.597656 10.117188-22.597656 22.597656l-51.199219 140.59375 51.199219 141.566406c0 12.476563 10.117187 22.59375 22.597656 22.59375h57.207031c12.480469 0 22.597656-10.117187 22.597656-22.59375v-17.640624l51.199219-123.441407zm0 0" fill="#ff9ec0"/><path d="m79.804688 0h-57.207032c-12.480468 0-22.597656 10.117188-22.597656 22.597656v317.4375c0 12.480469 10.117188 22.597656 22.597656 22.597656h57.207032c12.476562 0 22.59375-10.117187 22.59375-22.597656v-317.4375c0-12.480468-10.117188-22.597656-22.59375-22.597656zm0 0" fill="#4d9ae8"/><path d="m184.195312 228.289062c-42.433593 0-76.953124 34.519532-76.953124 76.953126 0 14.273437 3.917968 27.644531 10.71875 39.113281 2.214843.726562 4.578124 1.125 7.039062 1.125h57.203125c12.480469 0 22.597656-10.117188 22.597656-22.597657v-17.640624l25.527344-61.542969c-12.863281-9.667969-28.835937-15.410157-46.132813-15.410157zm0 0" fill="#ff66a8"/><path d="m327.804688 228.289062c-15.898438 0-30.671876 4.859376-42.945313 13.152344l22.339844 46.164063c0 12.480469 10.117187 22.597656 22.597656 22.597656h57.207031c7.152344 0 13.523438-3.328125 17.664063-8.515625-1.863281-40.785156-35.625-73.398438-76.863281-73.398438zm0 0" fill="#de4b64"/><path d="m284.601562 35.761719h-57.203124c-12.480469 0-22.597657 10.117187-22.597657 22.597656v246.882813c0 12.480468 10.117188 22.597656 22.597657 22.597656h57.203124c12.480469 0 22.597657-10.117188 22.597657-22.597656v-246.882813c0-12.480469-10.117188-22.597656-22.597657-22.597656zm0 0" fill="#ffe675"/><path d="m489.402344 71.039062h-57.207032c-12.476562 0-22.59375 10.117188-22.59375 22.597657v176.328125c0 12.480468 10.117188 22.597656 22.59375 22.597656h57.207032c12.480468 0 22.597656-10.117188 22.597656-22.597656v-176.328125c0-12.480469-10.117188-22.597657-22.597656-22.597657zm0 0" fill="#4cb4a4"/><g fill="#485b73"><path d="m62.226562 49.640625c0 6.089844-4.9375 11.027344-11.027343 11.027344-6.089844 0-11.023438-4.9375-11.023438-11.027344s4.933594-11.023437 11.023438-11.023437c6.089843 0 11.027343 4.933593 11.027343 11.023437zm0 0"/><path d="m164.625 64.449219c0 6.089843-4.933594 11.023437-11.023438 11.023437-6.089843 0-11.027343-4.933594-11.027343-11.023437 0-6.089844 4.9375-11.027344 11.027343-11.027344 6.089844 0 11.023438 4.9375 11.023438 11.027344zm0 0"/><path d="m267.027344 79.253906c0 6.089844-4.9375 11.027344-11.027344 11.027344s-11.027344-4.9375-11.027344-11.027344 4.9375-11.027344 11.027344-11.027344 11.027344 4.9375 11.027344 11.027344zm0 0"/><path d="m369.425781 94.0625c0 6.085938-4.9375 11.023438-11.027343 11.023438-6.089844 0-11.023438-4.9375-11.023438-11.023438 0-6.089844 4.933594-11.027344 11.023438-11.027344 6.089843 0 11.027343 4.9375 11.027343 11.027344zm0 0"/><path d="m471.824219 108.867188c0 6.089843-4.933594 11.023437-11.023438 11.023437-6.089843 0-11.027343-4.933594-11.027343-11.023437 0-6.089844 4.9375-11.027344 11.027343-11.027344 6.089844 0 11.023438 4.9375 11.023438 11.027344zm0 0"/><path d="m62.226562 313.960938c0 6.089843-4.9375 11.027343-11.027343 11.027343-6.089844 0-11.023438-4.9375-11.023438-11.027343 0-6.089844 4.933594-11.027344 11.023438-11.027344 6.089843 0 11.027343 4.9375 11.027343 11.027344zm0 0"/><path d="m471.824219 254.734375c0 6.089844-4.933594 11.027344-11.023438 11.027344-6.089843 0-11.027343-4.9375-11.027343-11.027344s4.9375-11.023437 11.027343-11.023437c6.089844 0 11.023438 4.933593 11.023438 11.023437zm0 0"/></g><path d="m256 277.613281c-8.699219-22.53125-27.699219-39.976562-51.199219-46.519531v74.148438c0 12.480468 10.117188 22.597656 22.597657 22.597656h57.203124c12.480469 0 22.597657-10.117188 22.597657-22.597656v-74.148438c-23.5 6.542969-42.5 23.988281-51.199219 46.519531zm0 0" fill="#ffb258"/><path d="m235.394531 305.242188c0 28.277343-22.921875 51.203124-51.199219 51.203124-28.277343 0-51.199218-22.925781-51.199218-51.203124 0-28.277344 22.921875-51.199219 51.199218-51.199219 28.277344 0 51.199219 22.921875 51.199219 51.199219zm0 0" fill="#ececee"/><path d="m204.800781 335.839844c-28.277343 0-51.199219-22.921875-51.199219-51.199219 0-8.839844 2.238282-17.15625 6.183594-24.414063-15.957031 8.671876-26.789062 25.578126-26.789062 45.015626 0 28.277343 22.921875 51.203124 51.199218 51.203124 19.4375 0 36.347657-10.832031 45.015626-26.789062-7.253907 3.941406-15.570313 6.183594-24.410157 6.183594zm0 0" fill="#dadadc"/><path d="m379.003906 305.242188c0 28.277343-22.921875 51.203124-51.199218 51.203124-28.277344 0-51.199219-22.925781-51.199219-51.203124 0-28.277344 22.921875-51.199219 51.199219-51.199219 28.277343 0 51.199218 22.921875 51.199218 51.199219zm0 0" fill="#ececee"/><path d="m348.40625 335.839844c-28.277344 0-51.199219-22.921875-51.199219-51.199219 0-8.839844 2.242188-17.15625 6.183594-24.414063-15.957031 8.671876-26.785156 25.578126-26.785156 45.015626 0 28.277343 22.921875 51.203124 51.199219 51.203124 19.4375 0 36.34375-10.832031 45.015624-26.789062-7.257812 3.941406-15.574218 6.183594-24.414062 6.183594zm0 0" fill="#dadadc"/></svg>