<svg id="Layer_1" enable-background="new 0 0 128 128" height="512" viewBox="0 0 128 128" width="512" xmlns="http://www.w3.org/2000/svg"><path d="m99.327 78.498c0-18.208-7.851-25.818-16.838-28.569.327-1.167.599-2.335.794-3.492.819.32 1.7.482 2.642.482 1.794 0 3.806-.579 6.019-1.735.298-.156.49-.459.503-.795.009-.219.169-5.385-3.442-8.078-.742-.554-1.592-.939-2.525-1.194l-.005-.897c5.11-1.124 9.049-4.392 11.754-9.796 3.141-6.277 1.56-13.015-.749-16.879-.454-.762-1.515-1.061-2.322-.653-.244.125-1.416.844-.58 2.791.431 1.005.227 6.135-2.511 9.953-1.897 2.646-4.561 4.035-7.926 4.163-2.579-5.346-8.656-8.232-17.698-8.232-9.036 0-15.108 2.884-17.691 8.225-3.217.128-5.833-.808-7.757-2.81-3.575-3.722-3.81-9.908-3.704-11.396.572-1.174.13-2.111-.597-2.535-.83-.485-1.911-.259-2.36.494-2.309 3.864-3.89 10.603-.748 16.879 3.043 6.081 7.647 9.46 13.727 10.116v.339c-1.42.186-2.666.652-3.711 1.431-3.61 2.693-3.45 7.859-3.441 8.078.013.336.205.639.503.795 2.213 1.156 4.225 1.735 6.018 1.735 1.045 0 2.011-.208 2.904-.601.21 1.275.51 2.564.88 3.851-7.907 2.69-16.979 9.791-16.979 28.231v20.81c0 1.712 1.17 3.18 2.781 3.489.343.066.689.082 1.031.046.166-.014.316.029.417.119.075.068.111.151.111.255v1.754c0 .033.002.065.005.097-.003.04-.005.082-.005.123 0 2.425 1.973 4.398 4.398 4.398 1.403 0 2.654-.661 3.46-1.686.537.683 1.274 1.198 2.119 1.47v7.098c0 .144.038.277.097.399v5.753c0 1.425 1.155 2.579 2.579 2.579h2.22c.53 0 .959-.429.959-.959v-1.798c0-.558.453-1.011 1.011-1.011.558 0 1.011.453 1.011 1.011v1.798c0 .53.429.959.959.959h2.223c1.424 0 2.579-1.155 2.579-2.579v-5.753c.058-.122.096-.255.096-.399v-7.129c.453.158.938.247 1.444.247 1.403 0 2.654-.661 3.46-1.686.707.899 1.756 1.517 2.949 1.656v6.913c0 .144.038.277.097.399v5.753c0 1.425 1.155 2.579 2.579 2.579h2.222c.53 0 .959-.429.959-.959v-1.798c0-.558.453-1.011 1.011-1.011.558 0 1.011.453 1.011 1.011v1.798c0 .53.429.959.959.959h2.223c1.424 0 2.579-1.155 2.579-2.579v-5.752c.058-.122.097-.255.097-.4v-6.93c.201.028.404.047.613.047 1.403 0 2.654-.66 3.46-1.686.806 1.026 2.058 1.686 3.46 1.686 2.425 0 4.398-1.973 4.398-4.398 0-.039-.002-.079-.005-.12.004-.033.005-.066.005-.1v-1.62c0-.11.038-.199.117-.271.104-.096.257-.147.48-.126.916.061 1.813-.269 2.507-.923.739-.693 1.163-1.671 1.163-2.681v-7.066c0-.519 0-4.331 0-4.85v-4.072c.001-.518.001-4.246.001-4.765z" fill="#e6e7e8"/><g fill="#ffd7e5"><path d="m48.828 101.121c.005.074.022.145.022.22 0-.075.017-.146.022-.22z"/><path d="m55.77 101.34c0 1.911-1.549 3.46-3.46 3.46s-3.46-1.549-3.46-3.46c0 1.911-1.549 3.46-3.46 3.46-.138 0-.269-.025-.403-.041v7.862h11.86v-8.781c-.66-.63-1.077-1.514-1.077-2.5z"/><path d="m55.748 101.121c.005.074.022.145.022.22 0-.075.017-.146.022-.22z"/><path d="m69.587 101.121c.005.074.022.145.022.22 0-.075.017-.146.022-.22z"/><path d="m76.507 101.121c.005.074.022.145.022.22 0-.075.017-.146.022-.22z"/><path d="m76.529 101.34c0 1.911-1.549 3.46-3.46 3.46s-3.46-1.549-3.46-3.46c0 1.764-1.326 3.204-3.032 3.417v7.864h11.86v-8.204c-1.127-.57-1.908-1.727-1.908-3.077z"/><path d="m82.732 32.332.026 4.916c0 1.759-1.425 3.184-3.184 3.184-.238 0-.467-.035-.689-.085-.012.137-.011.263-.025.402-.017.164-.051.33-.071.495 1.937 1.272 4.78 1.544 8.967-.644 0 0 .253-6.625-5.024-8.268z"/><path d="m46.519 40.749c-.09-.861-.127-1.679-.134-2.474-1.111-.497-1.888-1.607-1.888-2.903v-3.393c-7.47.325-7.153 8.621-7.153 8.621 4.375 2.286 7.283 1.887 9.22.465-.011-.105-.034-.211-.045-.316z"/></g><path d="m77.58 46.829c-1.154 3.744-2.924 7.324-5.029 10.131-.926 1.236-1.282 2.782-1.05 4.21.074.455.088.929.035 1.416-.294 2.682-2.655 4.658-5.207 4.658h-7.278c-2.551 0-4.913-1.975-5.207-4.658-.053-.486-.039-.961.035-1.416.232-1.428-.124-2.974-1.05-4.21-2.073-2.765-3.825-6.279-4.98-9.962-9.086 2.761-17.177 10.588-17.177 27.649v20.811c0 1.219.824 2.338 2.022 2.568.259.05.512.059.755.034.823-.086 1.563.479 1.563 1.307v1.754h.022c-.005.074-.022.145-.022.22 0 1.911 1.549 3.46 3.46 3.46s3.46-1.549 3.46-3.46c0-.075-.017-.146-.022-.22h.044c-.005.074-.022.145-.022.22 0 1.911 1.549 3.46 3.46 3.46s3.46-1.549 3.46-3.46c0-.075-.017-.146-.022-.22h.044c-.005.074-.022.145-.022.22 0 1.911 1.549 3.46 3.46 3.46s3.46-1.549 3.46-3.46c0-.075-.017-.146-.022-.22h.044c-.005.074-.022.145-.022.22 0 1.911 1.549 3.46 3.46 3.46s3.46-1.549 3.46-3.46c0-.075-.017-.146-.022-.22h.044c-.005.074-.022.145-.022.22 0 1.911 1.549 3.46 3.46 3.46s3.46-1.549 3.46-3.46c0-.075-.017-.146-.022-.22h.044c-.005.074-.022.145-.022.22 0 1.911 1.549 3.46 3.46 3.46s3.46-1.549 3.46-3.46c0-.075-.017-.146-.022-.22h.044c-.005.074-.022.145-.022.22 0 1.911 1.549 3.46 3.46 3.46s3.46-1.549 3.46-3.46c0-.075-.017-.146-.022-.22h.044c-.005.074-.022.145-.022.22 0 1.911 1.549 3.46 3.46 3.46s3.46-1.549 3.46-3.46c0-.075-.017-.146-.022-.22h.022v-1.621c0-.826.727-1.402 1.55-1.336.015.001.029.002.044.003 1.467.092 2.673-1.198 2.673-2.668v-20.753c-.003-18.192-8.018-25.471-17.059-27.917z" fill="#fa759e"/><path d="m76.573 38.268c-.427 1.255-1.602 2.164-3.002 2.164-1.399 0-2.575-.909-3.002-2.164-.427 1.255-1.602 2.164-3.002 2.164s-2.575-.909-3.002-2.164c-.427 1.255-1.602 2.164-3.002 2.164s-2.575-.909-3.002-2.164c-.427 1.255-1.602 2.164-3.002 2.164s-2.575-.909-3.002-2.164c-.427 1.255-1.602 2.164-3.002 2.164-1.652 0-2.994-1.262-3.152-2.872-.024 1.013-.003 2.063.114 3.189.602 5.761 3.075 11.896 6.309 16.211.926 1.236 1.282 2.782 1.05 4.21-.074.455-.088.93-.035 1.416.294 2.682 2.656 4.658 5.207 4.658h7.278c2.552 0 4.913-1.976 5.207-4.658.053-.486.039-.961-.035-1.416-.232-1.428.124-2.975 1.05-4.21 3.235-4.315 5.707-10.45 6.309-16.211.015-.139.013-.265.025-.402-1.082-.243-1.955-1.038-2.309-2.079z" fill="#ffd7e5"/><path d="m62.677 54.357c-1.76 0-3.425.306-4.908.851-2.281.839-3.686 3.006-3.832 5.432-.011.178-.03.354-.059.529-.074.455-.088.93-.035 1.416.294 2.682 2.656 4.658 5.207 4.658h7.278c2.552 0 4.913-1.976 5.207-4.658.053-.486.039-.961-.035-1.416-.028-.174-.048-.349-.058-.526-.146-2.413-1.537-4.571-3.802-5.415-1.496-.557-3.181-.871-4.963-.871z" fill="#ffd7e5"/><path d="m44.497 25.687h.051c.099-1.787.455-3.356 1.032-4.729-12.518.921-13.243-13.012-12.958-15.397.855-1.497-.845-1.941-1.236-1.287-1.782 2.983-3.911 9.592-.715 15.979 3.655 7.302 9.136 9.38 13.826 9.687z" fill="#6dc9f7"/><path d="m92.923 4.274c-.391-.654-2.046-.6-1.236 1.287.896 2.087-.297 14.822-11.026 15.415 1.167 1.762 1.9 3.926 2.047 6.587l.01 1.947c3.916-.927 8.001-3.424 10.92-9.257 3.196-6.387 1.067-12.996-.715-15.979z" fill="#6dc9f7"/><path d="m80.831 25.687c-.528-9.574-8.436-12.932-18.141-12.932s-17.613 3.359-18.141 12.932h-.051v9.685c0 1.758 1.425 3.184 3.184 3.184 1.399 0 2.575-.909 3.002-2.164.427 1.255 1.602 2.164 3.002 2.164s2.575-.909 3.002-2.164c.427 1.255 1.602 2.164 3.002 2.164s2.575-.909 3.002-2.164c.427 1.255 1.602 2.164 3.002 2.164 1.399 0 2.575-.909 3.002-2.164.427 1.255 1.602 2.164 3.002 2.164s2.575-.909 3.002-2.164c.427 1.255 1.602 2.164 3.002 2.164 1.758 0 3.184-1.425 3.184-3.184z" fill="#fff"/><path d="m82.707 27.563c-.528-9.574-8.436-12.932-18.141-12.932s-17.613 3.359-18.141 12.932h-.051v9.685c0 1.758 1.425 3.184 3.184 3.184 1.399 0 2.575-.909 3.002-2.164.427 1.255 1.602 2.164 3.002 2.164s2.575-.909 3.002-2.164c.427 1.255 1.602 2.164 3.002 2.164s2.575-.909 3.002-2.164c.427 1.255 1.602 2.164 3.002 2.164 1.399 0 2.575-.909 3.002-2.164.427 1.255 1.602 2.164 3.002 2.164s2.575-.909 3.002-2.164c.427 1.255 1.602 2.164 3.002 2.164 1.758 0 3.184-1.425 3.184-3.184z" fill="#fa759e"/><path d="m78.812 46.135c.313-1.126.578-2.253.769-3.369.806.305 1.669.463 2.592.463 1.803 0 3.825-.582 6.047-1.742.317-.166.522-.489.536-.848.009-.22.169-5.417-3.466-8.13-.753-.562-1.616-.952-2.562-1.208l.011 2.094c.489.182.944.411 1.346.711 2.185 1.623 2.588 4.631 2.659 5.885-2.8 1.351-5.106 1.582-6.88.713.006-.1.011-.2.02-.302-.103.01-.203.031-.309.031-.065 0-.127-.01-.191-.014-.001 0-.002-.001-.002-.002-.169-.01-.334-.035-.495-.071-.349-.081-.677-.213-.973-.398-.018.234-.023.458-.048.697-.566 5.416-2.909 11.438-6.114 15.715-1.068 1.425-1.52 3.236-1.237 4.97.061.377.07.762.027 1.146-.231 2.113-2.082 3.768-4.213 3.768h-2.652v-2.874c1.04-.861 3.352-2.991 3.352-4.914 0-.553-.447-1-1-1-.552 0-1 .447-1 1 0 .76-1.197 2.109-2.287 3.078-.023-.002-.042-.013-.065-.013s-.042.011-.065.013c-1.11-.989-2.287-2.345-2.287-3.078 0-.553-.448-1-1-1s-1 .447-1 1c0 1.923 2.312 4.053 3.352 4.914v2.873h-2.626c-2.13 0-3.981-1.654-4.213-3.766-.042-.388-.033-.773.028-1.148.281-1.733-.169-3.545-1.237-4.969-3.206-4.277-5.549-10.299-6.115-15.716-.037-.353-.048-.688-.07-1.032-.029-.026-.049-.062-.077-.089.106.008.207.032.315.032 1.157 0 2.232-.481 3.002-1.283.77.802 1.844 1.283 3.001 1.283 1.158 0 2.232-.48 3.002-1.283.77.803 1.844 1.283 3.001 1.283 1.158 0 2.232-.481 3.002-1.283.77.802 1.844 1.283 3.002 1.283 1.157 0 2.231-.481 3.002-1.283.77.802 1.844 1.283 3.001 1.283s2.232-.481 3.002-1.283c.77.802 1.845 1.283 3.002 1.283 2.307 0 4.184-1.877 4.184-4.188l-.051-9.686c0-.017-.001-.033-.002-.05-.077-1.392-.324-2.674-.701-3.868.032.058.069.11.1.168 4.45-.414 7.14-2.797 8.661-4.919 2.505-3.494 3.246-8.1 2.995-10.592 1.36 3.194 2.352 8.401-.143 13.385-2.367 4.73-5.683 7.608-10.03 8.687l.011 2.041c5.134-1.124 9.092-4.405 11.809-9.833 3.152-6.298 1.565-13.062-.751-16.939-.473-.791-1.573-1.098-2.404-.676-.252.129-1.467.873-.608 2.871.428.996.221 6.091-2.504 9.892-1.877 2.619-4.517 3.98-7.843 4.117-2.603-5.334-8.691-8.211-17.731-8.211-9.047 0-15.133 2.884-17.733 8.226-3.181.116-5.767-.812-7.67-2.792-3.551-3.697-3.792-9.837-3.688-11.337.582-1.203.124-2.166-.626-2.604-.857-.504-1.978-.268-2.445.515-2.316 3.878-3.903 10.641-.75 16.939 3.045 6.085 7.646 9.475 13.72 10.148v.225c-1.408.192-2.646.66-3.686 1.435-3.636 2.713-3.475 7.91-3.466 8.13.014.358.218.682.536.848 2.222 1.161 4.244 1.742 6.047 1.742 1.024 0 1.974-.197 2.854-.572.206 1.232.498 2.476.853 3.719-7.913 2.709-16.965 9.835-16.965 28.271v20.811c0 1.742 1.191 3.234 2.833 3.55.349.066.702.083 1.047.046.143-.016.28.024.368.104.062.056.091.122.091.209v1.754c0 .033.001.066.005.099-.003.04-.005.08-.005.121 0 2.459 2.001 4.46 4.46 4.46 1.395 0 2.642-.644 3.46-1.648.531.651 1.243 1.147 2.057 1.418v7.052c0 .19.067.357.158.508v5.644c0 1.425 1.155 2.579 2.579 2.579h2.223c.53 0 .959-.429.959-.959v-1.798c0-.558.453-1.011 1.011-1.011.558 0 1.011.453 1.011 1.011v1.798c0 .53.429.959.959.959h2.223c1.424 0 2.579-1.155 2.579-2.579v-5.644c.092-.151.159-.318.159-.508v-7.046c.436.143.899.224 1.382.224 1.395 0 2.642-.644 3.46-1.648.704.865 1.727 1.459 2.888 1.609v6.861c0 .19.067.357.158.508v5.644c0 1.425 1.155 2.579 2.579 2.579h2.222c.53 0 .959-.429.959-.959v-1.798c0-.558.453-1.011 1.011-1.011s1.011.453 1.011 1.011v1.798c0 .53.429.959.959.959h2.222c1.424 0 2.579-1.155 2.579-2.579v-5.643c.092-.151.159-.318.159-.508v-6.857c.181.022.365.036.552.036 1.395 0 2.642-.644 3.46-1.648.818 1.005 2.064 1.648 3.459 1.648 2.459 0 4.46-2.001 4.46-4.46 0-.04-.002-.079-.005-.12.003-.032.005-.065.005-.1v-1.623c0-.092.032-.165.097-.226.093-.084.228-.122.436-.109.931.063 1.846-.275 2.555-.94.75-.705 1.181-1.698 1.181-2.726v-7.065c0-.553-.447-1-1-1s-1 .447-1 1v7.065c0 .478-.2.939-.55 1.269-.302.283-.683.427-1.087.399-.694-.05-1.39.176-1.89.638-.479.44-.741 1.043-.741 1.695v1.414c-.019.088-.025.18-.02.271.002.022.017.132.02.154 0 1.356-1.104 2.46-2.46 2.46-1.355 0-2.459-1.104-2.456-2.456.003-.021.015-.136.017-.158.018-.275-.101-.547-.29-.749-.379-.404-1.104-.404-1.481 0-.189.202-.286.474-.269.749.002.024.017.13.021.154 0 1.356-1.104 2.46-2.46 2.46s-2.46-1.104-2.457-2.456c.003-.021.015-.136.017-.158.018-.275-.079-.547-.269-.749-.188-.202-.453-.316-.729-.316h-.044c-.276 0-.541.114-.729.316-.189.202-.286.474-.269.749.002.024.017.13.021.154 0 1.356-1.104 2.46-2.46 2.46s-2.46-1.104-2.458-2.448c.004-.027.017-.151.019-.179.014-.274-.085-.542-.273-.741s-.451-.312-.726-.312h-.044c-.276 0-.541.114-.729.316-.189.202-.286.474-.269.749.002.024.017.13.021.154 0 1.356-1.104 2.46-2.46 2.46s-2.46-1.104-2.458-2.452c.003-.023.016-.139.018-.162.018-.275-.101-.547-.291-.749-.378-.404-1.104-.404-1.482 0-.189.202-.286.474-.268.749.002.024.017.13.021.154 0 1.356-1.104 2.46-2.46 2.46s-2.46-1.104-2.458-2.448c.003-.026.017-.146.018-.172.017-.275-.082-.545-.271-.745-.189-.201-.452-.314-.728-.314h-.044c-.275 0-.539.113-.728.314-.001.001-.002.001-.002.001-.05.054-.076.122-.112.184-.032.054-.076.101-.098.16-.026.073-.024.152-.033.229-.007.057-.028.111-.025.17v.003.003c.002.023.017.131.02.154 0 1.356-1.104 2.46-2.46 2.46s-2.46-1.104-2.458-2.448c.003-.024.017-.142.019-.166.018-.275-.079-.547-.268-.749s-.453-.316-.73-.316h-.044c-.277 0-.541.114-.73.316s-.286.474-.268.749c.002.023.017.131.02.154 0 1.356-1.104 2.46-2.46 2.46s-2.459-1.104-2.457-2.452c.003-.023.016-.139.018-.162.018-.275-.101-.547-.291-.749-.378-.404-1.104-.404-1.482 0-.189.202-.286.474-.268.749.002.024.017.13.021.154 0 1.356-1.104 2.46-2.46 2.46s-2.46-1.104-2.458-2.452c.003-.023.016-.139.018-.162.005-.088-.001-.176-.02-.261v-1.559c0-.656-.267-1.258-.752-1.694-.51-.459-1.207-.683-1.915-.606-.149.015-.306.009-.462-.022-.69-.132-1.21-.813-1.21-1.585v-20.808c0-17.107 8.282-23.778 15.575-26.337 1.169 3.378 2.815 6.625 4.782 9.25.744.991 1.058 2.249.863 3.449-.089.553-.104 1.12-.042 1.687.342 3.111 3.065 5.548 6.201 5.548h7.278c3.137 0 5.86-2.438 6.201-5.548.063-.563.049-1.13-.041-1.686-.195-1.201.119-2.458.862-3.45 2.021-2.695 3.705-6.044 4.878-9.52 10.222 3.128 15.407 12.06 15.407 26.707 0 .553.447 1 1 1s1-.447 1-1c-.004-18.212-7.842-25.843-16.828-28.613zm-1.374 65.486h-9.86v-6.059c.804-.273 1.507-.766 2.032-1.411.038.046.08.087.12.132.068.076.133.155.206.226.027.027.058.051.086.077.09.085.181.169.277.246.016.012.033.023.049.035.112.087.227.171.348.247.009.006.02.011.029.016.267.166.552.305.852.412.018.006.036.01.054.016.139.047.279.091.424.124.034.008.07.011.105.018.13.027.259.053.393.068.169.02.342.03.516.03s.346-.01.516-.03c.673-.078 1.3-.306 1.848-.65.003-.002.006-.003.01-.005.104-.065.201-.139.299-.212.032-.024.067-.045.098-.07.067-.054.129-.114.193-.171.057-.051.117-.098.171-.152.035-.034.065-.073.099-.109.077-.081.155-.162.226-.249.261.32.569.599.908.837v6.634zm-30.673-6.043c.026-.008.052-.014.078-.023.235-.081.458-.185.674-.303.042-.023.083-.045.125-.069.207-.122.405-.259.589-.412.033-.027.063-.056.095-.084.188-.165.367-.341.525-.536.818 1.005 2.065 1.648 3.46 1.648.174 0 .347-.01.516-.03.109-.013.214-.036.321-.056.059-.011.119-.017.177-.031.143-.033.281-.076.418-.123.02-.007.04-.011.06-.017.291-.104.567-.239.827-.398.018-.011.037-.019.055-.03.118-.075.231-.157.342-.243.018-.014.037-.025.055-.039.103-.082.199-.171.294-.261.022-.021.047-.04.069-.062.074-.073.141-.153.21-.231.038-.043.08-.083.116-.128.021.026.046.049.068.074.004.004.007.008.011.013v7.383h-9.86v-5.861c.022-.003.042-.012.064-.015.242-.036.481-.091.711-.166zm15.925-91.824c7.513 0 16.582 2.075 17.142 11.963l.051 9.655c0 1.204-.979 2.184-2.184 2.184-.927 0-1.753-.598-2.056-1.486-.138-.405-.519-.678-.946-.678s-.809.272-.946.678c-.303.889-1.129 1.486-2.056 1.486s-1.752-.598-2.055-1.486c-.138-.405-.518-.678-.946-.678s-.809.272-.946.678c-.304.889-1.129 1.486-2.056 1.486s-1.753-.598-2.055-1.486c-.138-.405-.519-.678-.947-.678s-.809.272-.947.678c-.302.889-1.128 1.486-2.055 1.486s-1.752-.598-2.055-1.486c-.138-.405-.519-.678-.947-.678s-.809.272-.947.678c-.302.889-1.128 1.486-2.055 1.486s-1.752-.598-2.055-1.486c-.138-.405-.519-.678-.947-.678s-.809.272-.947.678c-.303.889-1.128 1.486-2.055 1.486-1.204 0-2.184-.979-2.184-2.184v-9.37c.027-.083.044-.17.049-.261.549-9.907 9.626-11.987 17.145-11.987zm-31.125 6.052c-2.593-5.183-1.417-10.607.023-13.759-.072 2.313.44 8.553 4.256 12.526 2.139 2.226 4.942 3.354 8.331 3.403-.31 1.04-.519 2.148-.605 3.335-.047.115-.073.242-.073.375v3.147c-5.293-.649-9.23-3.631-11.932-9.027zm6.792 20.184c.071-1.255.475-4.263 2.659-5.885.698-.518 1.526-.86 2.481-1.026v2.293c0 1.465.76 2.751 1.903 3.499.016.555.05 1.121.104 1.702-.015.009-.028.02-.043.028-1.8 1.004-4.188.796-7.104-.611z" fill="#3a2c60"/><path d="m94.636 78.512c-.553 0-1 .447-1 1v4.071c0 .553.447 1 1 1s1-.447 1-1v-4.071c0-.553-.447-1-1-1z" fill="#3a2c60"/><path d="m51.699 39.994c-1.233 0-2.233 1-2.233 2.233s1 2.233 2.233 2.233 2.233-1 2.233-2.233-1-2.233-2.233-2.233z" fill="#3a2c60"/><path d="m73.571 40.432c-.27 0-.527-.043-.776-.106-.643.392-1.076 1.093-1.076 1.901 0 1.233 1 2.233 2.233 2.233s2.233-1 2.233-2.233c0-.927-.566-1.722-1.371-2.06-.382.165-.799.265-1.243.265z" fill="#3a2c60"/></svg>