<svg id="flat" height="512" viewBox="0 0 512 512" width="512" xmlns="http://www.w3.org/2000/svg"><path d="m408 80v-56l-19.1476 9.5738a23.25021 23.25021 0 0 0 -12.8524 20.79562 23.25021 23.25021 0 0 0 6.80983 16.44038l9.19017 9.1902z" fill="#78889c"/><path d="m456 80v-56l19.1476 9.5738a23.25021 23.25021 0 0 1 12.8524 20.79562 23.25021 23.25021 0 0 1 -6.80983 16.44038l-9.19017 9.1902z" fill="#78889c"/><path d="m464 336v40l-48 40-8-16 8-24 16-16-46.39-37.11v-42.89h41.06l16.89 25.34 8.88 13.31 7.12 10.68z" fill="#e9d5c6"/><path d="m224 344-48 48-.67 8-2.66 32-1.34 16-1.33 16-2 24h-16l-16-32v-112z" fill="#e9d5c6"/><path d="m176 224h-80a40 40 0 0 0 -40 40v16a27.31368 27.31368 0 0 1 8 19.31369v1.605a63.63246 63.63246 0 0 1 -40 59.08131v-96.00007a71.99993 71.99993 0 0 1 71.99993-71.99993h80.00007z" fill="#6e7e91"/><path d="m440 120v126.24c0 .59-.01 1.17-.02 1.76a91.11033 91.11033 0 0 1 -1.71 16 89.73458 89.73458 0 0 1 -4.68994 16q-1.26014 3.18-2.74 6.25a92.15638 92.15638 0 0 1 -27.88006 33.75 90.63317 90.63317 0 0 1 -11.7 7.40991 91.864 91.864 0 0 1 -23.26 8.59009v152h-16l-16-40-2.46-16-2.46-16-2.46-16-2.47022-16-2.46-16-3.68978-24h-136l-24 14.3999-16 9.6001-16 9.6-24 14.4-.66992 8-2.66016 32-1.33984 16-1.33008 16-2 24h-16l-16-32v-80l35.6499-57.03 4.3501-6.97a95.297 95.297 0 0 1 -16-52.84009v-3.15991a64.023 64.023 0 0 1 6.06006-27.22c.77-1.63 1.59985-3.23 2.5-4.78a63.98216 63.98216 0 0 1 55.43994-32h181.04a48.28252 48.28252 0 0 0 6.74-.47c1.42993-.2 2.82983-.47 4.22-.79a48.00226 48.00226 0 0 0 16-7.02c.83008-.57 1.6499-1.17 2.45-1.79a47.98453 47.98453 0 0 0 10.99-12v-.01a47.86079 47.86079 0 0 0 7.3-20.62l3.26-29.3z" fill="#f2e7df"/><path d="m480 88v32l-25.5 57.38a24.62082 24.62082 0 0 1 -35.91992 10.64 25.45539 25.45539 0 0 1 -2.58008-1.93 24.55066 24.55066 0 0 1 -6.5-8.71l-25.5-57.38v-32l24-24h48z" fill="#f7efe9"/><g fill="#78889c"><path d="m448 168v18.09a24.61382 24.61382 0 0 1 -29.41992 1.93 25.45539 25.45539 0 0 1 -2.58008-1.93v-18.09a16 16 0 1 1 32 0z"/><path d="m424 32h16v56h-16z"/><path d="m192 304v40h-8l-8 4.8v-44.8z"/><path d="m299.31 192-35.31 35.31v36.69h-16v-35.72l-54.42-36.28h28.84l32.56 21.71 21.71-21.71z"/><path d="m232 240v104h-16v-99.72l-76.56006-51.04a63.39177 63.39177 0 0 1 12.56006-1.24h14.41992l62.02 41.34a8.03272 8.03272 0 0 1 3.56008 6.66z"/><path d="m192 256v32h-16v-27.72l-71.22-47.49a64.47714 64.47714 0 0 1 12.74-10.72l70.91992 47.27a8.03272 8.03272 0 0 1 3.56008 6.66z"/><path d="m160 280v24h-16v-19.88l-55.02-39.31a63.11865 63.11865 0 0 1 5.08008-16.03l62.58984 44.71a8.00888 8.00888 0 0 1 3.35008 6.51z"/><path d="m248 280h16v64h-16z"/><path d="m438.27 264a89.73458 89.73458 0 0 1 -4.68994 16h-33.58006a8.00023 8.00023 0 0 1 -6.25-3l-32-40 12.5-10 29.59009 37z"/><path d="m339.78 191.53-43.78 43.78v108.69h-16v-112a8.00818 8.00818 0 0 1 2.34009-5.66l34.33984-34.34h16.36007a48.28252 48.28252 0 0 0 6.74-.47z"/><path d="m344 190.74a48.00226 48.00226 0 0 0 16-7.02v32.28a8.008 8.008 0 0 1 -2.34009 5.66l-29.65991 29.65v28.69h-16v-32a8.00818 8.00818 0 0 1 2.34009-5.66l29.65991-29.65z"/><path d="m440 232v14.24c0 .59-.01 1.17-.02 1.76h-23.98a8.00812 8.00812 0 0 1 -6.3999-3.2l-47.1501-62.87a47.98453 47.98453 0 0 0 10.99-12l46.56 62.07z"/><path d="m128 328v49.6l-24 14.4-.66992 8h-15.33008v-16h24v-52.68994l-12.3501-12.34006-1.30981-1.31006 5.65991-5.65994 5.65991-5.66 16 16a8.00818 8.00818 0 0 1 2.34009 5.66z"/><path d="m160 320v38.4l-16 9.6v-48z"/><path d="m419.59009 304a91.69585 91.69585 0 0 1 -16.63009 16h-58.96v-16z"/><path d="m336 336h32v16h-32z"/><path d="m368 368v16h-41.85l-2.46-16z"/><path d="m368 400v16h-36.92l-2.46-16z"/><path d="m368 432v16h-32l-2.46-16z"/><path d="m452.44 318.65-24 16.01-8.88-13.32 24-16z"/><path d="m184 384-8 8-.67 8h-23.33v-16z"/><path d="m174 416-1.33 16h-36.67v-16z"/><path d="m171.33 448-1.33 16h-30l-4-8v-8z"/><path d="m99.33 448-1.33 16h-30l-4-8v-8z"/><path d="m102 416-1.33 16h-36.67v-16z"/></g><path d="m408 104h8a8 8 0 0 1 8 8v8a0 0 0 0 1 0 0h-8a8 8 0 0 1 -8-8v-8a0 0 0 0 1 0 0z" fill="#d6bfae"/><path d="m448 104h8a0 0 0 0 1 0 0v8a8 8 0 0 1 -8 8h-8a0 0 0 0 1 0 0v-8a8 8 0 0 1 8-8z" fill="#d6bfae" transform="matrix(-1 0 0 -1 896 224)"/><path d="m464 336v10l-16.53 12.4-9.6-12.8 21.69-16.27z" fill="#78889c"/></svg>